<svg width="202" height="43" viewBox="0 0 202 43" fill="none" xmlns="http://www.w3.org/2000/svg">
<path d="M9.648 15.308V20.852H20.772V26.36H9.648V35H2.52V9.8H22.284V15.308H9.648ZM34.6638 35.324C32.5758 35.324 30.6918 34.892 29.0118 34.028C27.3318 33.164 26.0118 31.964 25.0518 30.428C24.1158 28.892 23.6478 27.152 23.6478 25.208C23.6478 23.288 24.1158 21.56 25.0518 20.024C26.0118 18.488 27.3198 17.3 28.9758 16.46C30.6558 15.596 32.5518 15.164 34.6638 15.164C36.7758 15.164 38.6718 15.596 40.3518 16.46C42.0318 17.3 43.3398 18.488 44.2758 20.024C45.2118 21.536 45.6798 23.264 45.6798 25.208C45.6798 27.152 45.2118 28.892 44.2758 30.428C43.3398 31.964 42.0318 33.164 40.3518 34.028C38.6718 34.892 36.7758 35.324 34.6638 35.324ZM34.6638 29.888C35.8638 29.888 36.8478 29.48 37.6158 28.664C38.3838 27.824 38.7678 26.672 38.7678 25.208C38.7678 23.768 38.3838 22.64 37.6158 21.824C36.8478 21.008 35.8638 20.6 34.6638 20.6C33.4638 20.6 32.4798 21.008 31.7118 21.824C30.9438 22.64 30.5598 23.768 30.5598 25.208C30.5598 26.672 30.9438 27.824 31.7118 28.664C32.4798 29.48 33.4638 29.888 34.6638 29.888ZM58.6403 35.324C56.5523 35.324 54.6683 34.892 52.9883 34.028C51.3083 33.164 49.9883 31.964 49.0283 30.428C48.0923 28.892 47.6243 27.152 47.6243 25.208C47.6243 23.288 48.0923 21.56 49.0283 20.024C49.9883 18.488 51.2963 17.3 52.9523 16.46C54.6323 15.596 56.5283 15.164 58.6403 15.164C60.7523 15.164 62.6483 15.596 64.3283 16.46C66.0083 17.3 67.3163 18.488 68.2523 20.024C69.1883 21.536 69.6563 23.264 69.6563 25.208C69.6563 27.152 69.1883 28.892 68.2523 30.428C67.3163 31.964 66.0083 33.164 64.3283 34.028C62.6483 34.892 60.7523 35.324 58.6403 35.324ZM58.6403 29.888C59.8403 29.888 60.8243 29.48 61.5923 28.664C62.3603 27.824 62.7443 26.672 62.7443 25.208C62.7443 23.768 62.3603 22.64 61.5923 21.824C60.8243 21.008 59.8403 20.6 58.6403 20.6C57.4403 20.6 56.4563 21.008 55.6883 21.824C54.9203 22.64 54.5363 23.768 54.5363 25.208C54.5363 26.672 54.9203 27.824 55.6883 28.664C56.4563 29.48 57.4403 29.888 58.6403 29.888ZM93.5609 8.288V35H87.0449V33.056C85.7729 34.568 83.8649 35.324 81.3209 35.324C79.5449 35.324 77.9249 34.916 76.4609 34.1C74.9969 33.26 73.8329 32.072 72.9689 30.536C72.1289 29 71.7089 27.224 71.7089 25.208C71.7089 23.192 72.1289 21.428 72.9689 19.916C73.8329 18.38 74.9969 17.204 76.4609 16.388C77.9249 15.572 79.5449 15.164 81.3209 15.164C83.6489 15.164 85.4489 15.836 86.7209 17.18V8.288H93.5609ZM82.7609 29.888C83.9369 29.888 84.9089 29.48 85.6769 28.664C86.4449 27.824 86.8289 26.672 86.8289 25.208C86.8289 23.768 86.4449 22.64 85.6769 21.824C84.9329 21.008 83.9609 20.6 82.7609 20.6C81.5609 20.6 80.5769 21.008 79.8089 21.824C79.0409 22.64 78.6569 23.768 78.6569 25.208C78.6569 26.672 79.0409 27.824 79.8089 28.664C80.5769 29.48 81.5609 29.888 82.7609 29.888Z" fill="#FA8700"/>
<path d="M103.65 15.452H95.9096V9.8H118.482V15.452H110.778V35H103.65V15.452ZM120.426 15.488H127.266V35H120.426V15.488ZM123.846 13.328C122.598 13.328 121.59 12.98 120.822 12.284C120.054 11.588 119.67 10.724 119.67 9.692C119.67 8.66 120.054 7.796 120.822 7.1C121.59 6.404 122.598 6.056 123.846 6.056C125.094 6.056 126.102 6.392 126.87 7.064C127.638 7.712 128.022 8.552 128.022 9.584C128.022 10.664 127.638 11.564 126.87 12.284C126.102 12.98 125.094 13.328 123.846 13.328ZM157.128 15.164C159.528 15.164 161.436 15.884 162.852 17.324C164.292 18.764 165.012 20.936 165.012 23.84V35H158.172V24.956C158.172 23.588 157.908 22.58 157.38 21.932C156.876 21.284 156.156 20.96 155.22 20.96C154.188 20.96 153.36 21.32 152.736 22.04C152.112 22.76 151.8 23.852 151.8 25.316V35H144.96V24.956C144.96 22.292 143.976 20.96 142.008 20.96C140.952 20.96 140.112 21.32 139.488 22.04C138.864 22.76 138.552 23.852 138.552 25.316V35H131.712V15.488H138.228V17.54C138.948 16.748 139.8 16.16 140.784 15.776C141.792 15.368 142.884 15.164 144.06 15.164C145.428 15.164 146.652 15.416 147.732 15.92C148.812 16.424 149.688 17.192 150.36 18.224C151.128 17.24 152.1 16.484 153.276 15.956C154.452 15.428 155.736 15.164 157.128 15.164ZM189.554 25.28C189.554 25.328 189.518 25.892 189.446 26.972H175.262C175.55 27.98 176.102 28.76 176.918 29.312C177.758 29.84 178.802 30.104 180.05 30.104C180.986 30.104 181.79 29.972 182.462 29.708C183.158 29.444 183.854 29.012 184.55 28.412L188.15 32.156C186.254 34.268 183.482 35.324 179.834 35.324C177.554 35.324 175.55 34.892 173.822 34.028C172.094 33.164 170.75 31.964 169.79 30.428C168.854 28.892 168.386 27.152 168.386 25.208C168.386 23.288 168.842 21.572 169.754 20.06C170.69 18.524 171.974 17.324 173.606 16.46C175.238 15.596 177.074 15.164 179.114 15.164C181.058 15.164 182.822 15.572 184.406 16.388C185.99 17.18 187.238 18.344 188.15 19.88C189.086 21.392 189.554 23.192 189.554 25.28ZM179.15 20.024C178.094 20.024 177.206 20.324 176.486 20.924C175.79 21.524 175.346 22.34 175.154 23.372H183.146C182.954 22.34 182.498 21.524 181.778 20.924C181.082 20.324 180.206 20.024 179.15 20.024Z" fill="white"/>
<rect x="119.6" y="6" width="8.5" height="7.4" rx="3.5" fill="#FA8700"/>
<rect x="2" y="39" width="67" height="3" fill="white"/>
</svg>
